<svg width="850" height="449" viewBox="0 0 850 449" fill="none" xmlns="http://www.w3.org/2000/svg">
<g clip-path="url(#clip0_65_89)">
<rect width="850" height="449" fill="white"/>
<line x1="351" y1="284" x2="850" y2="284" stroke="white" stroke-width="4"/>
<rect x="349" y="133" width="499" height="70" fill="#0B8044"/>
<path d="M471.256 150.824V185H463.768V170.264H449.8V185H442.312V150.824H449.8V163.688H463.768V150.824H471.256ZM489.362 159.512C493.154 159.512 496.226 160.712 498.53 163.112C500.834 165.512 502.034 168.68 502.034 172.616C502.034 176.6 500.834 179.768 498.53 182.168C496.226 184.568 493.106 185.768 489.266 185.768C485.378 185.768 482.258 184.568 479.954 182.168C477.602 179.768 476.45 176.6 476.45 172.616C476.45 168.68 477.602 165.512 480.002 163.112C482.354 160.712 485.474 159.512 489.362 159.512ZM489.17 164.696C487.346 164.696 485.906 165.416 484.85 166.856C483.794 168.248 483.266 170.168 483.266 172.664C483.266 175.16 483.794 177.128 484.85 178.568C485.906 179.96 487.346 180.68 489.266 180.68C491.138 180.68 492.578 179.96 493.634 178.52C494.69 177.08 495.218 175.112 495.218 172.568C495.218 170.12 494.642 168.2 493.586 166.808C492.53 165.416 491.042 164.696 489.17 164.696ZM527.442 167.432L521.058 167.48C520.866 166.232 520.434 165.32 519.666 164.84C518.898 164.312 517.794 164.072 516.354 164.072C515.154 164.072 514.194 164.264 513.522 164.696C512.85 165.128 512.514 165.752 512.514 166.52C512.514 167.384 512.898 168.008 513.666 168.392C514.434 168.728 515.826 169.112 517.794 169.544C518.178 169.592 518.418 169.64 518.562 169.688C519.714 169.88 520.674 170.072 521.346 170.264C522.018 170.456 522.882 170.744 523.842 171.128C524.85 171.512 525.618 171.992 526.146 172.472C526.722 172.952 527.202 173.624 527.586 174.44C528.018 175.304 528.21 176.264 528.21 177.32C528.21 179.912 527.202 181.976 525.186 183.464C523.17 185 520.434 185.72 516.882 185.72C513.522 185.72 510.786 185 508.578 183.56C506.418 182.12 505.314 179.912 505.266 176.936H511.746C511.986 179.72 513.762 181.064 517.026 181.064C518.418 181.064 519.522 180.824 520.338 180.248C521.154 179.672 521.538 178.952 521.538 177.992C521.538 177.08 521.202 176.408 520.434 176.024C519.714 175.64 518.37 175.256 516.354 174.776C516.21 174.776 516.066 174.728 515.97 174.68C515.778 174.632 515.25 174.536 514.482 174.344C513.714 174.2 513.186 174.104 512.898 174.008C512.61 173.912 512.082 173.768 511.41 173.576C510.738 173.384 510.21 173.24 509.874 173.048C509.586 172.856 509.154 172.664 508.626 172.376C508.098 172.088 507.714 171.8 507.426 171.464C507.186 171.176 506.898 170.792 506.61 170.36C506.322 169.928 506.082 169.448 505.986 168.872C505.89 168.344 505.842 167.768 505.842 167.096C505.842 164.696 506.754 162.824 508.674 161.48C510.546 160.184 513.234 159.512 516.69 159.512C519.762 159.512 522.306 160.184 524.322 161.432C526.29 162.728 527.346 164.744 527.442 167.432ZM538.727 160.232V163.304C540.503 160.808 543.047 159.56 546.407 159.56C549.719 159.56 552.407 160.76 554.423 163.16C556.439 165.56 557.447 168.776 557.447 172.76C557.447 176.648 556.439 179.768 554.471 182.12C552.503 184.472 549.911 185.624 546.695 185.624C543.335 185.624 540.791 184.424 539.063 181.928V193.784H532.295V160.232H538.727ZM544.727 165.032C542.855 165.032 541.415 165.704 540.359 167.048C539.303 168.392 538.823 170.264 538.823 172.664C538.823 175.064 539.351 176.936 540.407 178.28C541.463 179.624 542.903 180.296 544.775 180.296C546.599 180.296 547.991 179.624 549.047 178.28C550.103 176.936 550.631 175.112 550.631 172.76C550.631 170.36 550.103 168.488 549.047 167.096C547.991 165.752 546.551 165.032 544.727 165.032ZM568.647 150.824V156.584H561.831V150.824H568.647ZM568.647 160.232V185H561.831V160.232H568.647ZM587.646 160.232V164.888H582.606V176.552C582.606 177.272 582.606 177.8 582.654 178.136C582.654 178.472 582.798 178.808 582.99 179.192C583.182 179.528 583.47 179.768 583.854 179.864C584.238 179.96 584.814 180.008 585.582 180.008C586.398 180.008 587.07 180.008 587.646 179.912V185.096C585.966 185.24 584.574 185.288 583.518 185.288C580.542 185.288 578.478 184.808 577.422 183.752C576.366 182.696 575.838 180.68 575.838 177.704V164.84H571.71V160.232H575.838V152.744H582.606V160.232H587.646ZM613.929 185H606.969C606.777 184.376 606.585 183.56 606.489 182.6C604.425 184.712 601.737 185.72 598.473 185.72C595.737 185.72 593.577 185.096 591.993 183.752C590.457 182.408 589.641 180.584 589.641 178.232C589.641 177.176 589.785 176.264 590.073 175.448C590.361 174.68 590.793 174.008 591.417 173.432C592.041 172.904 592.617 172.472 593.193 172.088C593.769 171.752 594.537 171.464 595.497 171.224C596.505 171.032 597.321 170.84 597.897 170.744C598.521 170.648 599.385 170.504 600.489 170.36C602.889 170.072 604.473 169.736 605.289 169.352C606.105 169.016 606.537 168.344 606.537 167.384C606.537 165.176 605.049 164.072 602.073 164.072C600.489 164.072 599.337 164.36 598.617 164.936C597.849 165.512 597.369 166.472 597.177 167.864H590.793C591.177 162.296 594.969 159.512 602.265 159.512C609.465 159.512 613.065 162.2 613.065 167.576V178.28C613.065 181.448 613.353 183.656 613.929 185ZM606.441 172.952C605.673 173.432 604.041 173.912 601.641 174.296C599.625 174.584 598.329 175.016 597.705 175.496C597.033 176.072 596.649 176.936 596.649 177.992C596.649 179 596.985 179.816 597.657 180.392C598.329 180.968 599.241 181.256 600.393 181.256C602.217 181.256 603.705 180.776 604.809 179.816C605.913 178.856 606.441 177.464 606.441 175.736V172.952ZM625.459 150.824V185H618.643V150.824H625.459Z" fill="white"/>
<path d="M394 195L392.348 153.321L411.028 169.107L416 163.241L388.5 140L361 163.241L365.972 169.107L384.652 153.321L383 195L394 195Z" fill="white"/>
<rect x="349" y="206" width="499" height="70" fill="#0B8044"/>
<path d="M475.4 223.824V244.368C475.4 249.264 474.2 252.912 471.848 255.216C469.496 257.52 465.848 258.672 460.856 258.672C455.768 258.672 452.072 257.52 449.672 255.168C447.272 252.816 446.12 249.168 446.12 244.272V223.824H453.608V244.272C453.608 247.056 454.136 249.12 455.192 250.464C456.248 251.808 458.168 252.48 460.952 252.48C463.64 252.48 465.464 251.808 466.424 250.464C467.384 249.12 467.912 247.056 467.912 244.272V223.824H475.4ZM481.938 223.824H496.674C500.514 223.824 503.538 224.784 505.794 226.608C508.05 228.432 509.202 231.168 509.202 234.816C509.202 238.416 508.05 241.152 505.842 242.976C503.586 244.8 500.658 245.712 497.058 245.712H489.378V258H481.938V223.824ZM489.378 229.968V239.808H496.05C499.938 239.808 501.906 238.176 501.906 234.912C501.906 231.648 499.938 229.968 496.098 229.968H489.378ZM527.335 223.776L540.343 258H532.471L529.783 250.368H517.063L514.279 258H506.599L519.607 223.776H527.335ZM527.959 244.896L523.447 232.176L518.887 244.896H527.959Z" fill="white"/>
<path d="M420 246L378.321 244.348L394.107 263.028L388.241 268L365 240.5L388.241 213L394.107 217.972L378.321 236.652L420 235L420 246Z" fill="white"/>
<rect x="349" y="279" width="499" height="70" fill="#0B8044"/>
<path d="M687.4 297.824V318.368C687.4 323.264 686.2 326.912 683.848 329.216C681.496 331.52 677.848 332.672 672.856 332.672C667.768 332.672 664.072 331.52 661.672 329.168C659.272 326.816 658.12 323.168 658.12 318.272V297.824H665.608V318.272C665.608 321.056 666.136 323.12 667.192 324.464C668.248 325.808 670.168 326.48 672.952 326.48C675.64 326.48 677.464 325.808 678.424 324.464C679.384 323.12 679.912 321.056 679.912 318.272V297.824H687.4ZM693.842 297.824H710.018C713.186 297.824 715.826 298.544 717.842 299.984C719.858 301.424 720.914 303.536 720.914 306.416C720.914 308.048 720.482 309.44 719.666 310.688C718.802 311.936 717.698 312.848 716.258 313.472C720.386 314.672 722.498 317.456 722.498 321.824C722.498 325.088 721.394 327.584 719.234 329.36C717.026 331.136 714.29 332 710.93 332H693.842V297.824ZM701.138 303.632V311.696H707.954C711.698 311.696 713.618 310.352 713.618 307.712C713.618 306.128 713.09 305.072 712.082 304.496C711.026 303.92 709.682 303.632 707.954 303.632H701.138ZM701.138 316.784L701.09 326.096H708.626C710.594 326.096 712.13 325.76 713.282 325.136C714.434 324.464 715.01 323.264 715.01 321.44C715.01 319.568 714.386 318.32 713.186 317.696C711.986 317.072 710.354 316.784 708.29 316.784H701.138ZM752.983 308L745.831 308.048C745.543 304.64 743.383 302.96 739.351 302.96C737.623 302.96 736.279 303.296 735.319 303.968C734.359 304.64 733.831 305.6 733.831 306.848C733.831 307.232 733.927 307.616 734.023 307.952C734.167 308.24 734.407 308.528 734.743 308.816C735.127 309.104 735.463 309.296 735.799 309.488C736.183 309.68 736.711 309.872 737.383 310.064C738.055 310.256 738.679 310.448 739.255 310.64C739.831 310.784 740.599 310.976 741.607 311.264C742.663 311.504 743.527 311.744 744.295 311.984C747.655 312.944 750.199 314.144 751.831 315.584C753.463 317.024 754.279 319.088 754.279 321.776C754.279 323.696 753.895 325.424 753.079 326.864C752.311 328.304 751.207 329.456 749.863 330.32C748.519 331.184 747.031 331.808 745.399 332.192C743.767 332.576 742.039 332.816 740.215 332.816C735.607 332.816 731.959 331.712 729.367 329.6C726.775 327.488 725.431 324.464 725.383 320.624H732.823C732.967 324.896 735.559 327.056 740.551 327.056C742.519 327.056 744.055 326.624 745.207 325.808C746.359 324.992 746.887 323.888 746.887 322.496C746.887 321.296 746.407 320.432 745.351 319.904C744.295 319.328 742.135 318.608 738.775 317.648C738.583 317.6 738.439 317.552 738.343 317.552C738.247 317.504 738.151 317.456 737.959 317.408C737.815 317.36 737.671 317.312 737.527 317.312C736.375 316.976 735.607 316.736 735.127 316.592C734.695 316.448 733.975 316.208 733.015 315.872C732.055 315.488 731.335 315.2 730.903 314.912C730.423 314.624 729.895 314.192 729.223 313.712C728.551 313.184 728.119 312.656 727.831 312.08C727.543 311.504 727.255 310.832 727.015 310.016C726.775 309.2 726.679 308.336 726.679 307.376C726.679 304.256 727.879 301.76 730.279 299.888C732.679 298.064 735.847 297.104 739.831 297.104C743.671 297.104 746.791 298.016 749.239 299.84C751.639 301.664 752.887 304.352 752.983 308Z" fill="white"/>
<path d="M777 320L818.679 318.348L802.893 337.028L808.759 342L832 314.5L808.759 287L802.893 291.972L818.679 310.652L777 309L777 320Z" fill="white"/>
<rect x="544" y="349" width="112" height="105" fill="#B5B5B5"/>
<path d="M34.7052 270.418C28.3455 279.105 19.2519 291.357 11.2563 301.731C6.30972 308.149 11.5091 318.211 19.5883 317.588L44.8787 315.639C50.5645 315.201 55.1972 320.134 54.4024 325.781L48.7695 365.807C47.7978 372.711 54.7636 378.013 61.1598 375.238L123.12 348.355C125.998 347.106 129.322 347.461 131.872 349.289L174.966 380.181C181.13 384.6 189.647 379.804 189.064 372.242L185.43 325.091C185.183 321.886 186.679 318.796 189.345 317.001L225.853 292.423C232.088 288.225 230.66 278.672 223.47 276.482L189.132 266.021C184.45 264.595 181.79 259.665 183.169 254.969L194.644 215.889C196.804 208.535 189.299 202.059 182.34 205.271L149.369 220.491C145.589 222.235 141.106 221.136 138.563 217.841L111.134 182.304C106.302 176.044 96.3188 178.695 95.2288 186.527L90.9424 217.325C90.1903 222.729 84.8092 226.199 79.5767 224.655L29.7154 209.942C22.4937 207.811 16.0409 215.03 18.9649 221.968L35.7144 261.714C36.9282 264.594 36.5518 267.896 34.7052 270.418Z" fill="#FD4E12"/>
<path d="M153.122 245.679C142.364 245.679 133.642 255.833 133.642 268.357C133.642 280.881 142.364 291.034 153.122 291.034C163.881 291.034 172.603 280.881 172.603 268.357C172.603 255.833 163.881 245.679 153.122 245.679Z" fill="white"/>
<path d="M159.964 256.39C152.984 256.39 147.326 262.977 147.326 271.103C147.326 279.229 152.984 285.816 159.964 285.816C166.945 285.816 172.603 279.229 172.603 271.103C172.603 262.977 166.945 256.39 159.964 256.39Z" fill="#202020"/>
<path d="M102.878 248.425C92.1192 248.425 83.3973 258.579 83.3973 271.103C83.3975 283.627 92.1193 293.78 102.878 293.78C113.636 293.78 122.358 283.627 122.358 271.103C122.358 258.579 113.637 248.425 102.878 248.425Z" fill="white"/>
<path d="M109.72 259.136C102.74 259.136 97.0812 265.723 97.0812 273.849C97.0812 281.974 102.74 288.562 109.72 288.562C116.7 288.562 122.358 281.974 122.358 273.849C122.358 265.723 116.7 259.136 109.72 259.136Z" fill="#202020"/>
<path d="M134.706 341.569C136.648 341.405 138.58 342.018 140.109 343.271C141.635 344.525 142.633 346.316 142.852 348.253C143.048 350.052 143.227 351.745 143.414 353.509C145.91 377.017 148.368 400.67 150.956 424.071C151.102 425.224 151.399 426.079 151.639 426.46C151.896 426.859 151.944 426.758 152.043 426.779C152.12 426.822 153.963 427.275 156.433 426.824C156.976 426.735 157.534 426.618 158.091 426.476C158.373 426.404 158.649 426.327 158.9 426.249C159.038 426.207 159.151 426.17 159.268 426.13C159.316 426.114 159.378 426.092 159.416 426.077C159.434 426.07 159.452 426.063 159.464 426.057C159.466 426.055 159.507 426.04 159.39 426.078C161.98 425.111 164.821 425.228 167.302 426.445C169.783 427.66 171.7 429.876 172.62 432.563C173.539 435.249 173.38 438.175 172.163 440.655C170.947 443.137 168.773 444.97 166.134 445.792C163.223 446.667 161.325 446.958 158.865 447.228C153.676 447.671 147.2 447.591 140.759 443.185C134.193 438.634 132.003 430.916 131.753 425.699C130.439 402.011 129.278 378.327 128.071 354.715C127.981 352.964 127.891 351.194 127.802 349.529C127.691 347.583 128.373 345.649 129.667 344.156C130.963 342.664 132.764 341.734 134.706 341.569Z" fill="#FD4E12"/>
<path d="M103.205 335.497C101.255 335.497 99.3809 336.272 97.9638 337.651C96.5486 339.029 95.7061 340.899 95.6528 342.849C95.6094 344.696 95.5746 346.397 95.5375 348.214C95.0459 371.817 94.6052 395.57 94.0129 419.08C93.8747 421.623 93.2079 422.729 92.3032 423.526C91.3892 424.361 89.3169 425.304 86.6158 425.661C86.0508 425.739 85.4612 425.795 84.8814 425.823C84.5926 425.838 84.2971 425.845 84.0393 425.844C83.8912 425.844 83.7799 425.842 83.6551 425.838C83.6032 425.835 83.5439 425.833 83.5036 425.83C83.4849 425.828 83.4687 425.826 83.4573 425.825C83.4615 425.824 83.4069 425.82 83.5479 425.823C80.7897 425.645 78.1031 426.576 76.0777 428.457C74.0525 430.335 72.8538 433.008 72.7476 435.844C72.6415 438.68 73.6372 441.436 75.5166 443.46C77.3958 445.487 80.0051 446.616 82.7688 446.644C85.937 446.64 87.8283 446.345 90.2731 445.883C95.6877 444.765 101.692 442.508 106.584 437.357C111.557 432.226 113.442 424.772 113.224 419.08C112.542 395.393 111.71 371.717 110.928 348.119C110.869 346.324 110.808 344.553 110.757 342.849C110.703 340.899 109.861 339.029 108.446 337.651C107.028 336.272 105.154 335.497 103.205 335.497Z" fill="#FD4E12"/>
<path d="M94.3926 239.983C94.9535 238.722 96.4309 238.154 97.6924 238.715C98.9539 239.276 99.5217 240.753 98.961 242.015C96.9568 246.524 93.0198 248.884 88.9043 250.043C84.8211 251.193 80.2926 251.251 76.5069 250.993C75.1294 250.899 74.0887 249.707 74.1826 248.329C74.2766 246.952 75.4693 245.911 76.8467 246.005C80.3942 246.247 84.2656 246.155 87.5489 245.23C90.8 244.315 93.1968 242.674 94.3926 239.983ZM146.827 234.022C149.279 233.18 151.995 232.915 154.843 233.736C157.673 234.552 160.413 236.378 163.045 239.339C163.962 240.371 163.87 241.951 162.838 242.868C161.806 243.785 160.226 243.693 159.309 242.661C157.14 240.222 155.167 239.034 153.457 238.541C151.765 238.053 150.111 238.182 148.451 238.752C144.967 239.949 141.749 242.963 138.944 245.768C137.968 246.744 136.386 246.744 135.409 245.768C134.433 244.791 134.433 243.209 135.409 242.232C138.105 239.537 142.087 235.651 146.827 234.022Z" fill="#202020"/>
<path d="M177.677 290C177.677 296.075 167.827 301 155.677 301C143.526 301 133.677 296.075 133.677 290C133.677 283.925 143.526 279 155.677 279C167.827 279 177.677 283.925 177.677 290Z" fill="#FD4E12"/>
<path d="M141.699 297.793C144.107 297.345 147.248 297.199 149.721 298.943C152.54 300.932 153.125 304.292 152.641 307.679C152.368 309.592 150.595 310.922 148.681 310.648C146.768 310.375 145.439 308.603 145.712 306.689C145.9 305.369 145.748 304.828 145.658 304.651C145.596 304.621 145.421 304.55 145.056 304.517C144.563 304.473 143.874 304.508 142.979 304.675C139.248 305.369 134.172 307.887 130.525 310.156C128.884 311.177 126.726 310.674 125.705 309.033C124.684 307.392 125.187 305.233 126.828 304.212C130.681 301.814 136.656 298.732 141.699 297.793Z" fill="#202020"/>
<path d="M180.601 152.682L172.551 155.448L169.229 146.372C175.443 144.236 177.898 141.272 176.594 137.479C176.095 136.026 175.256 135.029 174.077 134.486C172.925 133.89 171.501 133.883 169.806 134.465C167.184 135.367 164.859 137.136 162.833 139.772L159.983 131.48C162.016 129.518 164.908 127.893 168.661 126.603C172.454 125.299 175.867 125.254 178.901 126.467C181.92 127.64 184.013 129.921 185.178 133.311C185.802 135.127 186.007 136.906 185.794 138.648C185.567 140.351 185.054 141.813 184.256 143.034C183.444 144.216 182.589 145.209 181.693 146.013C180.796 146.817 179.924 147.365 179.077 147.656L180.601 152.682ZM182.21 158.152C183.66 158.827 184.649 159.931 185.176 161.464C185.703 162.997 185.609 164.496 184.894 165.96C184.205 167.369 183.094 168.338 181.561 168.865C180.027 169.392 178.536 169.318 177.086 168.643C175.662 167.914 174.687 166.783 174.16 165.25C173.633 163.716 173.714 162.245 174.402 160.835C175.118 159.371 176.242 158.376 177.775 157.849C179.308 157.322 180.787 157.423 182.21 158.152Z" fill="#C8C8C8"/>
<path d="M213.462 187.355L208.855 184.695L211.771 179.405C215.327 181.458 217.732 181.399 218.985 179.228C219.465 178.397 219.591 177.592 219.363 176.814C219.172 176.026 218.591 175.352 217.621 174.792C216.12 173.925 214.332 173.555 212.258 173.681L214.998 168.936C216.757 169.089 218.71 169.786 220.858 171.026C223.029 172.279 224.45 173.87 225.123 175.798C225.809 177.703 225.592 179.625 224.472 181.565C223.872 182.604 223.118 183.431 222.209 184.045C221.313 184.637 220.413 184.995 219.51 185.12C218.62 185.222 217.801 185.226 217.054 185.134C216.307 185.041 215.691 184.855 215.206 184.575L213.462 187.355ZM211.543 190.359C211.82 191.319 211.705 192.238 211.199 193.116C210.692 193.993 209.947 194.564 208.963 194.827C208.016 195.081 207.104 194.955 206.226 194.448C205.349 193.941 204.772 193.208 204.495 192.247C204.254 191.277 204.387 190.353 204.894 189.476C205.401 188.598 206.128 188.032 207.075 187.779C208.058 187.515 208.989 187.637 209.866 188.143C210.744 188.65 211.303 189.388 211.543 190.359Z" fill="#C8C8C8"/>
</g>
<defs>
<clipPath id="clip0_65_89">
<rect width="850" height="449" fill="white"/>
</clipPath>
</defs>
</svg>
